<svg height="700pt" preserveAspectRatio="xMidYMid meet" viewBox="0 0 700 700" width="700pt" xmlns="http://www.w3.org/2000/svg"><g transform="matrix(.1 0 0 -.1 0 700)"><path d="m0 3503v-3448l713 1c391 1 714 2 717 3 3 0 5 84 5 186v185h-467-468l-1 23c-5 112-2 6101 2 6109 4 6 173 11 470 11l463 2v185 185l-717 3-717 2z"/><path d="m5563 6763 2-188 455-2c250-1 461-2 468-2 9-1 12-622 12-3071v-3070l-67-1c-38 0-249 0-469 0h-402l2-187 1-187 718-3 717-2v3450 3450h-720-719z"/><path d="m3468 5885c-2-2-30-6-63-9-421-46-817-249-1058-544-101-123-208-329-243-467-4-16-8-32-9-35 0-3-4-27-9-53-4-27-10-59-12-70-7-35-7-277 1-327 50-337 204-600 477-817 127-101 338-221 518-295 14-5 39-16 55-24 17-7 188-81 380-164 406-176 524-232 620-296 157-104 245-225 270-374 8-47 9-170 1-206-3-16-8-39-11-52-2-13-16-49-30-80-80-174-242-291-478-344-119-26-381-33-512-12-251 39-494 138-740 303-66 44-132 90-146 103-58 51-122 103-132 107-5 2-12-1-16-7-3-5-31-38-63-73-31-35-137-158-236-274l-180-210 41-38c229-210 485-371 772-485 108-43 287-99 330-103 2 0 19-4 37-10 40-11 190-36 288-48 41-4 149-9 240-9 262 0 430 23 645 89 344 106 619 289 809 539 107 142 199 351 232 528 2 12 7 34 10 50 13 62 12 320-1 407-16 103-23 142-32 170-4 11-8 25-9 30-1 6-14 42-28 80-89 232-262 443-492 594-148 98-296 167-807 381-252 105-497 209-545 232-345 166-483 385-416 657 70 283 341 434 762 426 140-3 207-10 282-30 3-1 23-5 45-10 153-31 427-173 612-316l62-48 111 137c61 75 116 144 123 152s28 35 47 60c19 24 43 53 53 65 10 11 37 44 60 74l41 53-35 32c-19 17-51 45-70 62-111 98-293 216-454 293-213 102-411 162-655 197-46 6-436 14-442 9z"/></g></svg>