<?xml version="1.0" standalone="no"?>
<!DOCTYPE svg PUBLIC "-//W3C//DTD SVG 20010904//EN"
 "http://www.w3.org/TR/2001/REC-SVG-20010904/DTD/svg10.dtd">
<svg version="1.0" xmlns="http://www.w3.org/2000/svg"
 width="700.000000pt" height="700.000000pt" viewBox="0 0 700.000000 700.000000"
 preserveAspectRatio="xMidYMid meet">
<metadata>
Created by potrace 1.11, written by Peter Selinger 2001-2013
</metadata>
<g transform="translate(0.000000,700.000000) scale(0.100000,-0.100000)"
fill="#000000" stroke="none">
<path d="M0 3503 l0 -3448 713 1 c391 1 714 2 717 3 3 0 5 84 5 186 l0 185
-467 0 -468 0 -1 23 c-5 112 -2 6101 2 6109 4 6 173 11 470 11 l463 2 0 185 0
185 -717 3 -717 2 0 -3447z"/>
<path d="M5563 6763 l2 -188 455 -2 c250 -1 461 -2 468 -2 9 -1 12 -622 12
-3071 l0 -3070 -67 -1 c-38 0 -249 0 -469 0 l-402 0 2 -187 1 -187 718 -3 717
-2 0 3450 0 3450 -720 0 -719 0 2 -187z"/>
<path d="M3468 5885 c-2 -2 -30 -6 -63 -9 -421 -46 -817 -249 -1058 -544 -101
-123 -208 -329 -243 -467 -4 -16 -8 -32 -9 -35 0 -3 -4 -27 -9 -53 -4 -27 -10
-59 -12 -70 -7 -35 -7 -277 1 -327 50 -337 204 -600 477 -817 127 -101 338
-221 518 -295 14 -5 39 -16 55 -24 17 -7 188 -81 380 -164 406 -176 524 -232
620 -296 157 -104 245 -225 270 -374 8 -47 9 -170 1 -206 -3 -16 -8 -39 -11
-52 -2 -13 -16 -49 -30 -80 -80 -174 -242 -291 -478 -344 -119 -26 -381 -33
-512 -12 -251 39 -494 138 -740 303 -66 44 -132 90 -146 103 -58 51 -122 103
-132 107 -5 2 -12 -1 -16 -7 -3 -5 -31 -38 -63 -73 -31 -35 -137 -158 -236
-274 l-180 -210 41 -38 c229 -210 485 -371 772 -485 108 -43 287 -99 330 -103
2 0 19 -4 37 -10 40 -11 190 -36 288 -48 41 -4 149 -9 240 -9 262 0 430 23
645 89 344 106 619 289 809 539 107 142 199 351 232 528 2 12 7 34 10 50 13
62 12 320 -1 407 -16 103 -23 142 -32 170 -4 11 -8 25 -9 30 -1 6 -14 42 -28
80 -89 232 -262 443 -492 594 -148 98 -296 167 -807 381 -252 105 -497 209
-545 232 -345 166 -483 385 -416 657 70 283 341 434 762 426 140 -3 207 -10
282 -30 3 -1 23 -5 45 -10 153 -31 427 -173 612 -316 l62 -48 111 137 c61 75
116 144 123 152 7 8 28 35 47 60 19 24 43 53 53 65 10 11 37 44 60 74 l41 53
-35 32 c-19 17 -51 45 -70 62 -111 98 -293 216 -454 293 -213 102 -411 162
-655 197 -46 6 -436 14 -442 9z"/>
</g>
</svg>
