<svg height="33.23" viewBox="0 0 96 33.23" width="96" xmlns="http://www.w3.org/2000/svg"><g fill="#363636"><path d="m40.09 11.34h-1.82v-.23h.63v-3.63h-1.27v.52h-.3v-1h.3v.17h3.09v-.17h.28v1h-.3v-.51h-1.24v3.62h.63z"/><path d="m45.82 11.34h-1.5v-.23h.47v-1.74h-2.37v1.74h.48v.23h-1.51v-.23h.48v-3.71h-.48v-.23h1.51v.23h-.48v1.69h2.37v-1.69h-.47v-.23h1.5v.23h-.48v3.71h.48z"/><path d="m49.24 11.34h-2.88v-.23h.48v-3.71h-.48v-.23h2.52v-.17h.29v1h-.28v-.54h-1.5v1.62h1.2v-.48h.29v1.25h-.29v-.49h-1.2v1.7h1.61v-.56h.29z"/><path d="m55.48 7.4h-.48v2.41a1.43 1.43 0 0 1 -.77 1.4 1.9 1.9 0 0 1 -.88.21 1.47 1.47 0 0 1 -1.58-1.42v-2.6h-.47v-.23h1.5v.23h-.47v2.39a1.14 1.14 0 0 0 1.15 1.27 1.19 1.19 0 0 0 1.21-1.14.57.57 0 0 0 0-.13v-2.39h-.47v-.23h1.27z"/><path d="m59.38 11.41h-.2l-2.42-3.34v3h.47v.23h-1.23v-.23h.48v-3.43l-.17-.24h-.44v-.23h.92l2.31 3.17v-2.94h-.48v-.23h1.27v.23h-.47z"/><path d="m61.81 11.34h-1.48v-.23h.47v-3.71h-.47v-.23h1.5v.23h-.48v3.71h.48z"/><path d="m64.36 11.45h-.21l-1.59-4h-.38v-.28h1.57v.23h-.59l1.22 3.11 1.22-3.11h-.42v-.23h1.08v.23h-.33l-1.58 4z"/><path d="m69.51 11.34h-2.87v-.23h.47v-3.71h-.47v-.23h2.52v-.17h.29v1h-.28v-.54h-1.5v1.62h1.19v-.48h.29v1.25h-.29v-.49h-1.19v1.7h1.56v-.56h.29z"/><path d="m73.77 11.34h-.54c-.37 0-.44 0-.66-.37l-.94-1.5h-.49v1.65h.47v.23h-1.49v-.23h.47v-3.72h-.47v-.23h1.74c.62 0 1 .17 1.15.56a1.24 1.24 0 0 1 .13.56 1 1 0 0 1 -1 1.1l.91 1.4c.15.23.25.31.41.31h.25zm-2.62-2.16h.6a.8.8 0 0 0 .82-.8v-.07a.76.76 0 0 0 -.66-.85h-.76z"/><path d="m74.58 11.4h-.3v-1.14h.3v.5a1.33 1.33 0 0 0 .83.33c.5 0 .85-.27.85-.66s-.25-.62-.93-1-1.07-.73-1.07-1.25a1.16 1.16 0 0 1 1.19-1.1h.06a1.41 1.41 0 0 1 .75.18v-.21h.29v1.08h-.29v-.45a1.14 1.14 0 0 0 -.74-.28.64.64 0 0 0 -.7.57v.09c0 .33.18.5 1 1s1 .72 1 1.24a1.19 1.19 0 0 1 -1.22 1.16 1.59 1.59 0 0 1 -1-.28z"/><path d="m78.89 11.34h-1.5v-.23h.47v-3.71h-.47v-.23h1.5v.23h-.47v3.71h.47z"/><path d="m82.06 11.34h-1.82v-.23h.63v-3.63h-1.27v.52h-.3v-1h.3v.17h3.09v-.17h.31v1h-.3v-.51h-1.28v3.62h.64z"/><path d="m86 11.34h-1.47v-.23h.47v-1.69l-1.32-2h-.37v-.25h1.56v.23h-.57l1.09 1.65 1-1.65h-.58v-.23h1.27v.23h-.33l-1.22 2v1.73h.47z"/><path d="m88.74 9.26a2 2 0 1 1 2 2.16 2.11 2.11 0 0 1 -2-2.16zm.62 0c0 1.07.6 1.84 1.42 1.84s1.39-.78 1.39-1.84-.58-1.83-1.39-1.83-1.42.76-1.42 1.83z"/><path d="m94.69 11.34h-1.5v-.23h.47v-3.71h-.47v-.23h2.52v-.17h.29v1h-.28v-.54h-1.5v1.62h1.19v-.48h.29v1.25h-.29v-.49h-1.19v1.75h.47z"/><path d="m38.12 24.84h-.78v-3h.78v1.32a3.51 3.51 0 0 0 2.2.85c1.32 0 2.23-.7 2.23-1.75s-.66-1.65-2.45-2.58c-2.09-1.1-2.81-1.94-2.81-3.3a3 3 0 0 1 3.3-2.88 3.72 3.72 0 0 1 2 .47v-.61h.76v2.85h-.76v-1.21a3.14 3.14 0 0 0 -1.93-.73 1.68 1.68 0 0 0 -1.89 1.73c0 .85.48 1.34 2.56 2.54s2.67 1.93 2.67 3.3a3.13 3.13 0 0 1 -3.29 3.06 4.3 4.3 0 0 1 -2.57-.75v.69z"/><path d="m51.43 24.69h-4v-.63h1.25v-4.44l-3.46-5.31h-1v-.62h4.11v.62h-1.43l2.86 4.37 2.63-4.37h-1.51v-.62h3.33v.62h-.87l-3.19 5.22v4.53h1.28v.62z"/><path d="m55.05 24.69v-.63h1.25v-9.75h-1.25v-.62h4.95a5.5 5.5 0 0 1 0 11zm2.71-.84h2c2.28 0 4-2 4-4.66s-1.77-4.65-4-4.65h-2z"/><path d="m75 24.87h-.5l-6.39-8.8v8h1.26v.62h-3.37v-.62h1.26v-9.13l-.45-.63h-1.13v-.62h2.41l6.08 8.37v-7.75h-1.25v-.62h3.34v.62h-1.26z"/><path d="m85 24.69h-7.61v-.63h1.25v-9.75h-1.25v-.62h6.61v-.46h.77v2.63h-.74v-1.41h-4v4.28h3.15v-1.26h.82v3.3h-.77v-1.29h-3.13v4.46h4.1v-1.47h.8z"/><path d="m93.21 24.69h-4v-.63h1.29v-4.44l-3.5-5.31h-1v-.62h4.11v.62h-1.43l2.86 4.37 2.64-4.37h-1.52v-.62h3.34v.62h-.85l-3.2 5.22v4.53h1.25v.62z"/><path d="m16.46 21.6h2.46v-.37h-2.46zm0 1h2.46v-.38h-2.46zm0-2h2.46v-.37h-2.46zm-1.77.66h-2.46v.37h2.46zm0 1h-2.46v.37h2.46zm0-2h-2.46v.37h2.46zm3.9-6.54c-1 0-2-.09-3-.09s-2 0-3 .09v4.94h-9.53a14.88 14.88 0 0 0 2.76 6.44 1.06 1.06 0 0 1 .85-.44h5.89v5.18a11.38 11.38 0 0 0 3 .41 11.45 11.45 0 0 0 3-.41v-5.16h5.9a1 1 0 0 1 .84.43 14.9 14.9 0 0 0 2.76-6.46h-9.5zm-4.74 1.54 1.28.61.46-1.32.48 1.34 1.26-.61-.61 1.28 1.33.46-1.35.48.62 1.27-1.32-.64-.46 1.32-.48-1.34-1.25.61.61-1.28-1.28-.44 1.33-.48zm-4.5 8.2-1.27-.62-.48 1.31-.46-1.32-1.29.61.63-1.26-1.34-.48 1.31-.46-.61-1.24 1.27.61.48-1.34.46 1.32 1.28-.61-.61 1.27 1.33.48-1.31.45zm2-.09h-.56v-.41h.56zm0-1.1h-.56v-.41h.56zm0-1.09h-.56v-.41h.56zm0-1.09h-.56v-.42h.56zm.3 3.29v-4h2.65a1 1 0 0 1 1 1v3.29a1.05 1.05 0 0 0 -.78-.35zm5.64 5.13-1.29-.63-.46 1.31-.48-1.34-1.25.63.61-1.28-1.32-.46 1.33-.48-.58-1.26 1.28.61.46-1.32.48 1.34 1.26-.63-.61 1.29 1.32.45-1.34.48zm4.49-8.54 1.28.61.46-1.32.48 1.31 1.29-.57-.61 1.28 1.32.42-1.34.48.62 1.26-1.28-.61-.46 1.32-.46-1.34-1.27.62.61-1.28-1.32-.46 1.32-.48zm-2-.3h.56v.42h-.56zm0 1.1h.56v.41h-.56zm0 1.09h.56v.41h-.56zm0 1.1h.56v.41h-.56zm-.3-3.54v4h-2.88a1 1 0 0 0 -.78.34v-3.36a1 1 0 0 1 1-1 .43.43 0 0 1 .16 0zm4.9-16.81a44.16 44.16 0 0 0 -8.8-1 48.2 48.2 0 0 0 -11.78 1.69l-.94.26v10.61a89.63 89.63 0 0 1 12.72-1.1 88.76 88.76 0 0 1 12.71 1.1v-10.63l-.94-.26c-.73-.19-1.76-.45-3-.71zm-13.29 1.08c.19 0-.22-.36.05-.35a3.09 3.09 0 0 1 1.2.23c.08 0 .13-.13.3-.23a.06.06 0 0 1 .08 0c.18.1.24.26.33.22a3.22 3.22 0 0 1 1.19-.22c.28 0-.14.3 0 .35a2.15 2.15 0 0 1 1.76 2.07 2.09 2.09 0 0 1 -.19.81c-.05.14-.19-.25-.24 0a4.6 4.6 0 0 1 -.42 1.12c-.2.38-.54-.42-.66-.2a1.19 1.19 0 0 1 -.95.6s-.07 0 0-.05a.39.39 0 0 0 .11-.22.1.1 0 0 1 0-.06.8.8 0 0 0 .47-.6 4.63 4.63 0 0 1 .3-.81c.27-.48-.06-1.06 0-1.18a.69.69 0 0 0 .2-.94.68.68 0 0 0 -.93-.2.87.87 0 0 0 -.14.12l-.18.2a.17.17 0 0 0 0 .23c.46.11.76 1.16.58 1.49a3.54 3.54 0 0 0 -.33.87.38.38 0 0 1 -.37.38.36.36 0 0 1 -.25-.21c.13-.08.41-.25.41-.43l-.06-.57a.38.38 0 0 0 .37-.37h.06c.07-.07.12-.26 0-.23a6.31 6.31 0 0 0 -.76.1.09.09 0 0 0 -.06.07c0 .05.13.74.17.89s0 0 0 0h-.33a2.19 2.19 0 0 0 -.33 0 0 0 0 0 1 0 0c0-.17.19-.85.19-.85a.28.28 0 0 0 0-.09 3.8 3.8 0 0 0 -.81-.13.1.1 0 0 0 -.11 0c-.06.09.06.19.13.24a.38.38 0 0 0 .36.36s-.06.56-.06.57c0 .18.28.33.41.41a.05.05 0 0 1 0 0 .39.39 0 0 1 -.35.22.38.38 0 0 1 -.48-.3 4.21 4.21 0 0 0 -.33-.88c-.2-.33.09-1.37.58-1.49a.16.16 0 0 0 .1-.2.09.09 0 0 0 0-.06 1.16 1.16 0 0 0 -.73-.45.68.68 0 0 0 -.69.67c0 .43.33.5.3.62a1.43 1.43 0 0 0 .02 1.12 4.69 4.69 0 0 1 .29.79.84.84 0 0 0 .41.59c.1.06.05.14.09.23a.26.26 0 0 0 .09.09s0 .05 0 0a1.23 1.23 0 0 1 -1-.6c-.1-.22-.45.58-.66.2a4.07 4.07 0 0 1 -.41-1.12c0-.23-.19.16-.25 0a2.49 2.49 0 0 1 -.17-.81 2.17 2.17 0 0 1 1.71-2.01zm2.83.69a0 0 0 0 1 0 0 .27.27 0 0 1 .17-.06.31.31 0 0 1 .31.3.27.27 0 0 1 -.12.23 1.77 1.77 0 0 0 -.36-.47zm-.69 3.41c-.07.19-.33.13-.48.25a.09.09 0 0 1 -.07 0c-.15-.13-.41-.06-.48-.27a0 0 0 0 1 0 0 .76.76 0 0 0 .48-.24s0 0 .06 0a.8.8 0 0 0 .44.24.07.07 0 0 1 .05.02zm-2-3s-.05 0-.06 0a.3.3 0 0 1 0-.43.25.25 0 0 1 .18-.08.3.3 0 0 1 .21.08s0 0 0 .07a1.59 1.59 0 0 0 -.35.37zm-2.71 3.91a.65.65 0 0 0 -.44.16c-.1.06-.13-.12 0-.5s-.5-.46-.64-.36a.83.83 0 0 1 -1.17 0c-.1-.11.22-.07.24-.16s.16-.22.21-.27a.08.08 0 0 0 0-.11.52.52 0 0 1 -.3-.57s-.25-.07-.17-.14a.9.9 0 0 1 1.17 0s.11 0 .11 0-.05-.23.22-.46c.06 0-.15-.23 0-.22 1 .24.53 1.23.73 1.4a5.32 5.32 0 0 0 2.07.76l.38.14a1.66 1.66 0 0 0 1.44.17c.11-.05.11.1.07.14-1.31 1.26-2.34.94-2.7.71a.78.78 0 0 0 -1 .16s-.12.07-.15 0a.86.86 0 0 1 .08-.59c0-.24-.1-.26-.15-.26zm12.68 1.19a1.38 1.38 0 0 1 -1 .31.42.42 0 0 0 -.37.11.6.6 0 0 0 -.06.11.38.38 0 0 0 .07.31c0 .07 0 .12-.05.14a.54.54 0 0 1 -.41-.08c-.1 0-.12 0-.14.06s0 .23.18.33.06.12-.06.16-.36 0-.64-.17-.29-.11-.4 0a.14.14 0 0 0 0 .18c.11.11.17.33-.1.66-.09.11-.18-.2-.26-.16a.68.68 0 0 1 -.8-.21s-.07 0-.13 0-.59.33-.74 0c0-.05-.24.08-.24 0a.73.73 0 0 1 .73-.73c.07 0 .08 0 .05-.1a.52.52 0 0 1 -.14-.46c0-.12-.29-.15-.15-.22.65-.33 1 .31 1.17.38a1.2 1.2 0 0 0 1.19-.66c0-.1-.21-.14-.44-.19 0 0-.06-.07 0-.13a3.5 3.5 0 0 1 1.94-1 .15.15 0 0 1 .17.12 1.69 1.69 0 0 0 .12.44 1.82 1.82 0 0 0 .48.62.11.11 0 0 1 .07.16.09.09 0 0 1 -.04.02zm4.06-.33c.09 0 .09.1 0 .15a.56.56 0 0 1 -.4.12c-.1 0-.1.07-.09.11s.13.19.31.21.1.09 0 .17-.33.15-.66.14-.54.36-.36.51.36.33.15.95c-.07.18-.18-.17-.27-.12a.46.46 0 0 1 -.58-.16c0-.06-.09-.06-.12 0a.6.6 0 0 1 -.9.19c-.11-.06-.35.15-.36.08a.71.71 0 0 1 .3-.78s.09-.11 0-.11a.38.38 0 0 1 -.42-.29s-.23 0-.22-.1c.06-.3.72-.52 1.18-.21s.88-.63.53-1-1.74.54-2.25-.54c-.2-.43.06-.8-.15-.83a2.58 2.58 0 0 0 -2.18.6 3.64 3.64 0 0 1 -4.11.33.08.08 0 0 0 -.11 0 .09.09 0 0 0 0 .07.5.5 0 0 1 -.06.47 2.24 2.24 0 0 1 -.92.59.76.76 0 0 0 -.57.89 1.21 1.21 0 0 0 .05.18c0 .07 0 .12-.09.1a1.11 1.11 0 0 1 -.86-.62c0-.05-.07-.05-.13 0a.45.45 0 0 0 -.12.61.06.06 0 0 1 0 .09c-.25 0-.43-.26-.66-.24a1 1 0 0 0 -.4.18s0 .1 0 .19c.27.81-.18.84-.2.83s0-.16-.15-.18a.5.5 0 0 1 -.59-.41.2.2 0 0 0 0-.07c0-.07 0-.09-.08-.06s-.58.35-.84 0c0-.05-.17 0-.23 0s-.06-.07-.06-.09a.88.88 0 0 1 .36-.75c.06 0 .06-.06 0-.1s-.39-.33-.31-.58c0 0-.21-.13-.16-.17.51-.37 1.17.24 1.25.31s.56.08 1.74-.58a4.48 4.48 0 0 0 1.36-1 .26.26 0 0 1 .16-.09 2 2 0 0 0 1.32-.41.1.1 0 0 1 .14 0c.68.47 1-.57 1.16-1 0-.1 0-.18.15-.18 2.56.04 7.29.04 7.29.04s.62 0 .59-.33c-.05-.62-2.64-.6-4.55-.33a5.4 5.4 0 0 1 -2.31-.08 1.08 1.08 0 0 1 -.56-.45.77.77 0 0 1 -.06-.56 1.12 1.12 0 0 1 .16-.37 2.43 2.43 0 0 1 2-.82c.07 0 .11 0 .12-.08a.7.7 0 0 1 .66-.61 1.21 1.21 0 0 0 .36-.1c.05 0 .09 0 .08 0a.43.43 0 0 1 -.11.2c-.33.29-.29.43-.25.46s.05 0 .08 0c1-.88 1.61-.3 1.79-.11s0 .09 0 .11c-.69.15-1 .77-2.37.66-.17 0-1.32-.07-1.69.45-.21.3-.07.59.55.72a9.36 9.36 0 0 0 2.1-.1 13 13 0 0 1 3.9 0c.49.14 1.21.54 1.06 1.28a.93.93 0 0 1 -.54.66s-1.28.9 1 .91c.71 0 0 .59 0 .76s.09.2.2.26zm-4.21-4.94a.61.61 0 0 0 -.28.11c-.2.14-1 .48-1.29.07a1.86 1.86 0 0 0 1-.37.74.74 0 0 1 .66.07.07.07 0 0 1 0 .08.07.07 0 0 1 -.08 0zm-5.47-4.62a69.07 69.07 0 0 0 -15.58 2.08v10.38c0 9.36 6.7 19.09 15.57 20.77 9.2-1.79 15.58-11.41 15.58-20.77v-10.38a56.28 56.28 0 0 0 -15.57-2.08zm13.26 16.25c0 7.62-5.79 14.54-13.26 14.55s-13.27-6.93-13.27-14.55v-13.12h.19a51.26 51.26 0 0 1 13.08-2.13 51.23 51.23 0 0 1 13.07 2.08h.19z"/></g></svg>