<svg enable-background="new 0 0 291.238 100.823" height="100.82" viewBox="0 0 291.238 100.823" width="291.24" xmlns="http://www.w3.org/2000/svg"><g fill="#363636"><g><path d="m121.62 34.402h-5.52v-.709h1.916v-10.982h-3.833v1.533h-.92v-3.028h.92v.537h9.353v-.537h.92v3.028h-.92v-1.533h-3.833v10.981h1.917z"/><path d="m139.04 34.402h-4.562v-.709h1.438v-5.271h-7.187v5.271h1.438v.709h-4.562v-.709h1.438v-11.231h-1.438v-.709h4.562v.709h-1.438v5.098h7.187v-5.098h-1.438v-.709h4.562v.709h-1.457v11.231h1.457z"/><path d="m149.36 34.402h-8.72v-.709h1.438v-11.231h-1.438v-.709h7.646v-.537h.882v3.047h-.862v-1.629h-4.542v4.906h3.622v-1.437l.882-.019v3.775l-.882.019v-1.476h-3.622v5.136h4.714v-1.687h.882z"/><path d="m168.3 22.462h-1.438v7.302c0 2.05-.729 3.373-2.319 4.235-.805.421-1.725.651-2.664.651-2.778 0-4.829-1.84-4.829-4.351v-7.838h-1.438v-.709h4.562v.709h-1.438v7.245c0 2.319 1.36 3.833 3.488 3.833 2.185 0 3.66-1.553 3.66-3.853v-7.225h-1.438v-.709h3.853v.71z"/><path d="m180.12 34.613h-.595l-7.359-10.119v9.199h1.457v.709h-3.871v-.709h1.456v-10.503l-.518-.729h-1.322v-.709h2.779l7.015 9.621v-8.912h-1.46v-.709h3.853v.709h-1.438v12.152z"/><path d="m187.51 34.402h-4.562v-.709h1.438v-11.231h-1.438v-.709h4.562v.709h-1.438v11.231h1.438z"/><path d="m195.25 34.728h-.65l-4.829-12.266h-1.131v-.709h4.753v.709h-1.802l3.719 9.41 3.68-9.41h-1.266v-.709h3.277v.709h-.958l-4.79 12.266z"/><path d="m210.87 34.402h-8.72v-.709h1.438v-11.231h-1.438v-.709h7.646v-.537h.882v3.047h-.862v-1.629h-4.542v4.906h3.622v-1.437l.882-.019v3.775l-.882.019v-1.476h-3.622v5.136h4.715v-1.687h.881z"/><path d="m223.78 34.402h-1.629c-1.131 0-1.342-.115-1.974-1.131l-2.856-4.542h-1.494v4.964h1.438v.709h-4.562v-.709h1.438v-11.231h-1.438v-.709h5.328c1.858 0 2.913.518 3.487 1.706.25.518.384 1.093.384 1.706 0 1.859-1.035 3.047-2.875 3.315l2.76 4.254c.46.709.767.939 1.246.939h.747zm-7.95-6.555h1.84c1.456 0 2.472-1.073 2.472-2.645 0-1.648-.9-2.568-2.511-2.568h-1.801z"/><path d="m226.23 34.574h-.901v-3.45h.901v1.514c1.169.786 1.687.978 2.529.978 1.533 0 2.568-.805 2.568-2.012 0-1.093-.747-1.897-2.817-2.971-2.415-1.265-3.238-2.223-3.238-3.795 0-1.897 1.609-3.315 3.775-3.315.958 0 1.667.172 2.28.537v-.69h.882v3.277h-.882v-1.361c-.978-.652-1.456-.843-2.224-.843-1.303 0-2.146.786-2.146 1.974 0 .977.557 1.533 2.952 2.913s3.085 2.223 3.085 3.794c0 1.993-1.647 3.526-3.813 3.526-1.207 0-1.993-.249-2.951-.862z"/><path d="m239.32 34.402h-4.562v-.709h1.438v-11.231h-1.438v-.709h4.562v.709h-1.438v11.231h1.438z"/><path d="m248.92 34.402h-5.52v-.709h1.916v-10.982h-3.833v1.533h-.92v-3.028h.92v.537h9.353v-.537h.92v3.028h-.92v-1.533h-3.833v10.981h1.917z"/><path d="m261.03 34.402h-4.561v-.709h1.438v-5.117l-3.968-6.114h-1.111v-.709h4.733v.709h-1.744l3.297 5.021 3.047-5.021h-1.744v-.709h3.834v.709h-.997l-3.68 5.999v5.232h1.456z"/><path d="m269.19 28.097c0-3.603 2.799-6.574 6.19-6.574 3.335 0 6.133 2.99 6.133 6.555 0 3.564-2.798 6.573-6.133 6.573-3.37 0-6.19-2.99-6.19-6.554zm1.9-.019c0 3.239 1.802 5.577 4.293 5.577 2.453 0 4.235-2.357 4.235-5.577s-1.782-5.558-4.216-5.558c-2.51 0-4.31 2.299-4.31 5.558z"/><path d="m287.26 34.402h-4.562v-.709h1.438v-11.231h-1.438v-.709h7.646v-.537h.882v3.047h-.862v-1.629h-4.542v4.906h3.622v-1.437l.882-.019v3.775l-.882.019v-1.476h-3.622v5.29h1.438z"/></g><g><path d="m115.65 75.345h-2.373v-9.092h2.373v3.99c3.081 2.071 4.445 2.576 6.667 2.576 4.041 0 6.769-2.121 6.769-5.303 0-2.879-1.971-5-7.425-7.829-6.364-3.333-8.536-5.862-8.536-10.024 0-5 4.243-8.738 9.95-8.738 2.525 0 4.394.455 6.011 1.414v-1.818h2.323v8.637h-2.323v-3.586c-2.576-1.717-3.839-2.222-5.859-2.222-3.435 0-5.656 2.071-5.656 5.202 0 2.578 1.464 4.053 7.777 7.701 6.313 3.637 8.132 5.859 8.132 10 0 5.254-4.344 9.294-10.051 9.294-3.182 0-5.253-.657-7.778-2.272v2.07z"/><path d="m156 74.89h-12.021v-1.868h3.788v-13.486l-10.46-16.136h-2.929v-1.869h12.475v1.869h-4.596l8.687 13.257 8.031-13.257h-4.597v-1.869h10.102v1.869h-2.626l-9.697 15.833v13.788h3.838v1.869z"/><path d="m167.01 74.89v-1.868h3.788v-29.622h-3.788v-1.869h14.899c9.092 0 16.516 7.475 16.516 16.642 0 9.344-7.272 16.717-16.566 16.717h-14.85zm8.23-2.526h6.062c6.919 0 12.172-6.111 12.121-14.141 0-7.803-5.354-14.116-12.021-14.116h-6.162z"/><path d="m227.56 75.446h-1.565l-19.395-26.692v24.268h3.839v1.868h-10.203v-1.868h3.839v-27.703l-1.363-1.919h-3.485v-1.869h7.323l18.485 25.379v-23.51h-3.838v-1.869h10.151v1.869h-3.788z"/><path d="m257.76 74.89h-22.98v-1.868h3.788v-29.622h-3.788v-1.869h20.152v-1.414h2.323v8.031h-2.272v-4.293h-11.971v12.954h9.546v-3.797l2.323-.051v9.959l-2.323.051v-3.89h-9.546v13.536h12.425v-4.444h2.323z"/><path d="m282.75 74.89h-12.021v-1.868h3.788v-13.486l-10.46-16.136h-2.929v-1.869h12.475v1.869h-4.596l8.687 13.257 8.031-13.257h-4.597v-1.869h10.102v1.869h-2.626l-9.697 15.833v13.788h3.838v1.869z"/></g><path d="m49.93 65.523h7.452v-1.129h-7.452zm0 3.086h7.452v-1.127h-7.452zm0-6.171h7.452v-1.129h-7.452zm-5.368 1.957h-7.455v1.129h7.455zm0 3.087h-7.455v1.127h7.455zm0-6.173h-7.455v1.129h7.455zm11.838-19.788c-3.026-.154-6.107-.246-9.156-.246-3.041 0-6.117.092-9.139.244v15.055h-28.818c1.201 7.221 4.143 13.988 8.375 19.619.57-.803 1.504-1.326 2.564-1.326h17.879v15.656c2.922.804 5.975 1.245 9.133 1.245v.128h.014v-.128c3.164 0 6.222-.442 9.148-1.25v-15.651h17.883c1.051 0 1.982.518 2.556 1.314 4.224-5.627 7.164-12.393 8.363-19.607h-28.802zm-14.433 4.694 3.895 1.848 1.393-4.041 1.447 4.064 3.842-1.871-1.854 3.895 4.045 1.391-4.065 1.449 1.874 3.84-3.897-1.846-1.393 4.037-1.451-4.062-3.836 1.871 1.846-3.902-4.042-1.388 4.066-1.449zm-13.621 24.863-3.844-1.871-1.449 4.062-1.385-4.039-3.908 1.848 1.883-3.838-4.068-1.447 4.041-1.393-1.855-3.902 3.844 1.873 1.449-4.059 1.391 4.035 3.902-1.85-1.873 3.844 4.061 1.451-4.041 1.385zm6.175-.285h-1.693v-1.24h1.693zm0-3.314h-1.693v-1.249h1.693zm0-3.323h-1.693v-1.24h1.693zm0-3.316h-1.693v-1.246h1.693zm.903 9.959v-11.969h7.543c.143-.021.312 0 .463 0 1.725 0 3.049 1.326 3.049 3.018v10.029c-.561-.664-1.404-1.084-2.346-1.084-.123 0-6.348.004-8.709.006zm17.117 15.611-3.898-1.85-1.389 4.05-1.451-4.077-3.84 1.877 1.852-3.898-4.043-1.393 4.064-1.451-1.873-3.836 3.896 1.848 1.395-4.037 1.451 4.062 3.835-1.873-1.847 3.898 4.042 1.389-4.065 1.451zm13.603-25.912 3.907 1.85 1.386-4.035 1.452 4.059 3.839-1.873-1.851 3.901 4.041 1.393-4.069 1.447 1.879 3.838-3.904-1.848-1.387 4.039-1.451-4.062-3.842 1.871 1.854-3.9-4.042-1.385 4.062-1.451zm-6.178-.904h1.695v1.246h-1.695zm0 3.322h1.695v1.24h-1.695zm0 3.314h1.695v1.248h-1.695zm0 3.323h1.695v1.24h-1.695zm-.897-10.723v11.969c-2.363-.002-8.588-.006-8.709-.006-.943 0-1.783.42-2.346 1.084v-10.029c0-1.691 1.326-3.018 3.047-3.018.15 0 .32-.021.465 0zm14.854-51.031c-7.433-1.567-17.242-3.127-26.679-3.127-14.16-.004-29.137 3.518-35.713 5.279-1.312.35-2.287.631-2.857.797v32.225c4.262-.686 21.875-3.361 38.57-3.363 16.696.002 34.304 2.676 38.571 3.363v-32.225c-.573-.166-1.547-.447-2.859-.797-2.195-.586-5.317-1.367-9.033-2.152zm-40.277 3.387c.582-.135-.674-1.1.146-1.055.537.029 2.297.035 3.631.686.254.107.41-.375.916-.699.041-.025.162-.072.252-.002.525.324.711.795.965.686 1.324-.635 3.07-.635 3.598-.67.852-.053-.434.92.148 1.055 3.008.697 5.238 3.246 5.238 6.283 0 .879-.215 1.699-.514 2.465-.164.41-.594-.762-.752-.078-.295 1.238-.596 2.168-1.25 3.4-.625 1.158-1.656-1.27-1.977-.582-.582 1.223-1.943 1.645-2.895 1.791-.109.012-.211-.002-.08-.127.049-.047.279-.26.342-.693.008-.047-.02-.115.082-.16.717-.342 1.258-1.008 1.418-1.812.229-.746.531-1.809.898-2.467.814-1.449-.176-3.205.078-3.596.559-.363.93-.996.93-1.717 0-1.135-.926-2.055-2.053-2.055-.615 0-1.164.27-1.533.693l-.059.055c-.188.199-.371.404-.533.621-.186.24-.145.672.178.76 1.4.365 2.316 3.518 1.742 4.541-.254.455-1.027 2.152-1.027 2.646 0 .637-.512 1.15-1.146 1.15-.486 0-.896-.301-1.068-.748 0 0 .02-.037.023-.049.389-.242 1.242-.754 1.242-1.287l-.17-1.727c.697-.084 1.02-.463 1.105-1.123.062-.043.125-.09.18-.137.232-.213.389-.789-.111-.707-.711.133-1.516.107-2.295.324-.104.027-.18.121-.199.221-.033.15.424 2.236.525 2.699.008.053-.027.084-.053.084-.314-.025-.883-.053-1.021-.053-.135.002-.688.031-1.018.059-.033.002-.08-.041-.068-.084.105-.492.562-2.568.562-2.568.012-.086 0-.178-.049-.248-.15-.197-2.186-.371-2.459-.424-.117-.021-.232.023-.305.121-.201.285.152.605.377.74.088.641.424 1.012 1.1 1.096.008.01.021.029.029.033-.021.113-.193 1.713-.193 1.723 0 .553.842 1.02 1.258 1.264.023.029.053.064.059.104-.201.4-.598.688-1.055.688-.637 0-1.148-.514-1.148-1.15 0-.408-.76-2.182-1.047-2.664-.609-1.053.297-4.156 1.752-4.521.314-.076.477-.533.232-.773-.609-.604-1.307-1.357-2.23-1.357-1.133 0-2.051.92-2.051 2.055 0 1.299.998 1.506.93 1.865-.402 1.205-.41 2.521.133 3.449.375.643.66 1.668.887 2.402.137.754.594 1.396 1.238 1.773.32.186.164.434.299.703.062.129.166.215.248.285.137.105.031.129-.082.113-.957-.121-2.434-.523-3.043-1.811-.32-.688-1.361 1.74-1.977.582-.656-1.232-.957-2.162-1.25-3.4-.16-.684-.59.488-.754.078-.301-.766-.514-1.586-.514-2.465.002-3.038 2.235-5.587 5.238-6.284zm8.569 2.119c-.033-.029-.025-.148.016-.174.148-.115.334-.18.539-.18.506 0 .916.408.916.914 0 .287-.133.541-.336.709-.055.051-.156-.008-.176-.055-.262-.47-.582-.89-.959-1.214zm-2.076 10.33c-.219.58-1.037.387-1.473.744-.047.043-.178.043-.215.012-.434-.369-1.246-.188-1.508-.818-.02-.049-.02-.152.098-.17.574-.064 1.086-.344 1.457-.752.031-.039.129-.074.211.021.336.373.809.646 1.332.73.063.01.156.063.098.233zm-6.176-9.063c-.02.031-.113.064-.191.012-.205-.172-.34-.428-.34-.719 0-.506.408-.914.914-.914.246 0 .469.098.637.254.068.051.029.17-.008.203-.395.319-.739.723-1.012 1.164zm-8.127 11.807c-.623 0-.883.201-1.342.494-.287.201-.375-.361-.033-1.514.273-.904-1.5-1.391-1.922-.969-.596.465-2.123 1.375-3.611-.193-.299-.314.678-.209.736-.484.086-.404.457-.648.611-.811.086-.123.086-.311-.066-.383-.459-.246-1.086-.775-.91-1.752.021-.139-.777-.186-.512-.43 1.398-1.295 2.926-.488 3.539-.072.107.039.324.059.344-.148.047-.418-.17-.697.67-1.395.162-.135-.486-.699-.033-.672 2.898.727 1.586 3.73 2.188 4.26 1.105.986 3.779 1.764 6.295 2.303.217.047.998.324 1.162.41 2.031 1.037 3.275.936 4.375.504.352-.135.348.309.227.42-4.033 3.848-7.102 2.871-8.188 2.174-.754-.484-2.299-.5-3.012.49-.123.119-.34.195-.43-.121-.213-.74.02-1.223.238-1.756.137-.277-.205-.355-.326-.355zm38.465 3.572c-.541.473-1.507.988-3.036.934-.646-.027-.959.158-1.121.35-.096.131-.155.293-.166.326-.089.318.028.658.199.926.164.234.102.385-.152.445-.252.066-.585.072-1.242-.244-.289-.139-.371.039-.409.174-.109.318.101.713.53.998.221.193.18.381-.164.502-.578.201-1.097-.062-1.945-.533-.497-.277-.883-.322-1.218.074-.191.219-.173.424-.062.537.33.326.526.98-.294 2.014-.272.342-.566-.604-.816-.49-1.125.525-2.047-.162-2.396-.635-.076-.096-.232-.127-.427-.002-.562.377-1.766.998-2.23-.086-.072-.158-.734.246-.727-.064.025-1.795 1.584-2.131 2.25-2.189.203-.021.244-.119.137-.283-.266-.389-.586-.852-.41-1.391.123-.396-.898-.488-.48-.693 2.057-1.025 3.208.936 3.564 1.146.596.342 3.28-.529 3.607-1.982.07-.285-.626-.412-1.316-.584-.125-.029-.195-.189.032-.371 1.629-1.211 2.935-2.781 5.879-3.074.356-.037.5.258.511.402.057.457.177.904.372 1.32.426.902.938 1.463 1.456 1.873.247.198.217.477.074.6zm12.326-.922c.258.135.266.301.074.469-.199.174-.499.334-1.225.35-.316.004-.312.203-.287.338.046.332.417.588.934.648.278.072.328.258.079.52-.43.447-1.005.447-1.976.412-.916-.033-1.646 1.078-1.108 1.541.363.312 1.102 1.002.465 2.877-.202.566-.547-.52-.84-.35-.759.451-1.421-.117-1.766-.525-.147-.174-.279-.18-.38 0-.304.529-1.104 1.463-2.717.592-.349-.186-1.07.455-1.112.236-.262-1.254.381-1.996.929-2.387.055-.043.266-.328-.091-.318-.546-.029-1.209-.205-1.284-.871-.012-.143-.695-.107-.661-.299.162-.922 2.19-1.59 3.587-.664 1.183.781 2.667-1.883 1.601-3.133-.772-.898-5.287 1.617-6.822-1.65-.616-1.314.156-2.438-.471-2.527-.629-.09-3.468-.703-6.619 1.828-5.326 4.279-11.099 1.947-12.457.994-.213-.066-.42.104-.33.318.219.551.125 1.064-.141 1.457-.555.838-2.469 1.693-2.807 1.793-2.242.658-2.006 2.371-1.771 3.135.07.232-.016.371-.258.328-.686-.127-2.07-.547-2.613-1.893-.061-.156-.217-.162-.402-.029-.834.594-.539 1.457-.342 1.84.076.152.033.297-.164.318-.764.092-1.312-.799-1.971-.734-.43.041-.934.371-1.207.562-.133.084-.152.301-.07.547.836 2.48-.539 2.564-.621 2.52-.098-.053-.043-.467-.443-.529-1.348.074-1.732-.805-1.807-1.455-.027-.211-.109-.283-.252-.186-.514.355-1.771 1.055-2.561.025-.113-.146-.49.008-.695.096-.164.068-.168-.199-.164-.283.096-1.416 1.055-2.053 1.582-2.299.195-.092.217-.193.061-.309-.426-.316-1.178-1-.939-1.742.043-.141-.629-.406-.461-.527 1.551-1.123 3.539.74 3.793.941.266.213 1.676.258 5.27-1.762 2.285-1.283 3.48-2.344 4.131-3.15.08-.094.246-.266.479-.273 1.449-.049 2.881-.264 4-1.248.184-.191.375-.078.453-.023 2.055 1.43 3.115-1.734 3.539-3.18.055-.293.117-.535.43-.551 7.571.363 21.917.312 21.917.312s1.892.15 1.793-1.025c-.15-1.883-7.977-1.842-13.816-1.037-2.121.291-5.202.459-7.023-.246-.756-.293-1.367-.76-1.707-1.363-.363-.768-.268-1.227-.199-1.713.09-.352.262-.725.508-1.119 1.496-2.312 4.961-2.488 6.036-2.488.206 0 .335-.088.363-.238.108-.535.513-1.768 1.964-1.848.408-.025.824-.18 1.082-.299.172-.078.281-.031.25.119-.041.186-.13.436-.344.621-1.019.873-.869 1.275-.746 1.391.07.055.161.027.239-.045 3.085-2.688 4.882-.908 5.431-.326.092.102.116.266-.062.309-2.097.469-2.905 2.338-7.185 2.037-.521-.033-4.024-.209-5.137 1.377-.641.922-.195 1.781 1.697 2.199 1.437.314 4.787-.172 6.366-.301 1.545-.127 8.287-.969 11.82.049 1.492.426 3.659 1.623 3.229 3.883-.282 1.426-1.654 1.986-1.654 1.986s-3.879 2.729 3.076 2.758c2.158.01.034 1.785-.076 2.307-.08.375.27.715.606.912zm-12.766-15.08c-.211.037-.512.129-.84.346-.628.422-3.144 1.467-3.93.209 0 0 1.762-.061 2.911-1.076 0 0 1.233-.42 1.954.232.084.076.096.256-.095.289zm-16.607-13.949c-23.676 0-47.254 6.303-47.254 6.303v31.504c0 28.395 20.334 57.916 47.244 63.017 27.906-5.456 47.267-34.622 47.267-63.017v-31.5s-19.75-6.303-47.257-6.303zm40.227 49.305c-.003 23.117-17.573 44.105-40.229 44.132h-.014c-22.658-.027-40.228-21.015-40.232-44.132v-39.793l.59-.18c.039-.01 20.418-6.322 39.648-6.328 19.234.006 39.649 6.328 39.649 6.328l.588.18z"/></g></svg>