<svg height="66.03" viewBox="0 0 532.12 66.03" width="532.12" xmlns="http://www.w3.org/2000/svg" xmlns:xlink="http://www.w3.org/1999/xlink"><linearGradient id="a" gradientTransform="matrix(1 0 0 -1 0 67)" gradientUnits="userSpaceOnUse" x1="28.14" x2="11.26" y1="31.98" y2="2.74"><stop offset="0" stop-color="#0052cc"/><stop offset=".92" stop-color="#2684ff"/></linearGradient><path d="m19.35 30.11a1.85 1.85 0 0 0 -2.6-.34 1.76 1.76 0 0 0 -.55.69l-16 32a1.91 1.91 0 0 0 1.71 2.77h22.28a1.86 1.86 0 0 0 1.71-1.06c4.8-9.95 1.89-25.04-6.55-34.06z" fill="url(#a)"/><path d="m31.09 1a42.19 42.19 0 0 0 -2.47 41.65l10.74 21.5a1.92 1.92 0 0 0 1.71 1.06h22.27a1.92 1.92 0 0 0 1.92-1.91 1.85 1.85 0 0 0 -.21-.86l-30.71-61.44a1.8 1.8 0 0 0 -3.25 0z" fill="#2684ff"/><g fill="#0052cc"><path d="m292.31 26.67c0 7.92 3.68 14.21 18.05 17 8.57 1.8 10.37 3.19 10.37 6s-1.8 4.58-7.84 4.58a44.19 44.19 0 0 1 -20.82-5.64v12.9c4.33 2.13 10 4.49 20.66 4.49 15 0 21-6.7 21-16.65m0 0c0-9.39-5-13.8-19-16.82-7.76-1.72-9.64-3.43-9.64-5.88 0-3.1 2.78-4.41 7.92-4.41 6.21 0 12.33 1.88 18.13 4.49v-12.31a41 41 0 0 0 -17.72-3.67c-13.88 0-21.07 6-21.07 15.92"/><path d="m485.33 11.56v53.65h11.43v-40.91l4.82 10.86 16.17 30.05h14.37v-53.65h-11.43v34.62l-4.33-10-13-24.58z"/><path d="m400.13 11.56h12.5v53.65h-12.5z"/><path d="m385.72 49.37c0-9.39-5-13.8-19-16.82-7.75-1.72-9.63-3.43-9.63-5.88 0-3.1 2.77-4.41 7.92-4.41 6.2 0 12.33 1.88 18.13 4.49v-12.33a41 41 0 0 0 -17.72-3.67c-13.88 0-21.07 6-21.07 15.92 0 7.92 3.67 14.21 18.05 17 8.57 1.8 10.37 3.19 10.37 6s-1.8 4.58-7.84 4.58a44.16 44.16 0 0 1 -20.82-5.64v12.9c4.32 2.13 10 4.49 20.65 4.49 15 0 21-6.7 21-16.65"/><path d="m195.26 11.56v53.65h25.68l4.06-11.6h-17.16v-42z"/><path d="m144.53 11.56v11.6h13.88v42.05h12.59v-42h14.86v-11.65z"/><path d="m126.3 11.56h-16.48l-18.71 53.65h14.29l2.65-9a35.48 35.48 0 0 0 20 0l2.65 9h14.3zm-8.24 34.94a24.18 24.18 0 0 1 -6.87-1l6.87-23.41 6.88 23.42a24.66 24.66 0 0 1 -6.88.99z"/><path d="m265.21 11.56h-16.48l-18.73 53.65h14.29l2.65-9a35.48 35.48 0 0 0 20 0l2.65 9h14.29zm-8.21 34.94a24.18 24.18 0 0 1 -6.87-1l6.87-23.4 6.88 23.42a24.66 24.66 0 0 1 -6.88.98z"/><path d="m457.64 11.56h-16.47l-18.71 53.65h14.29l2.65-9a35.48 35.48 0 0 0 20 0l2.65 9h14.29zm-8.24 34.94a24.18 24.18 0 0 1 -6.87-1l6.87-23.4 6.88 23.42a24.66 24.66 0 0 1 -6.88.98z"/></g></svg>