<svg height="1024" viewBox="0 0 1024 1024" width="1024" xmlns="http://www.w3.org/2000/svg" xmlns:xlink="http://www.w3.org/1999/xlink"><linearGradient id="a" gradientUnits="userSpaceOnUse" x1="512" x2="512" y2="1024"><stop offset="0" stop-color="#814097"/><stop offset="1" stop-color="#2d368f"/></linearGradient><path d="m0 0h1024v1024h-1024z" fill="url(#a)"/><path d="m288 480a64 64 0 1 0 -64-64 64.06 64.06 0 0 0 64 64zm448 0a64 64 0 1 0 -64-64 64.06 64.06 0 0 0 64 64zm32 32h-64a63.81 63.81 0 0 0 -45.1 18.6 146.27 146.27 0 0 1 75.1 109.4h66a32 32 0 0 0 32-32v-32a64.06 64.06 0 0 0 -64-64zm-256 0a112 112 0 1 0 -112-112 111.94 111.94 0 0 0 112 112zm76.8 32h-8.3a157.53 157.53 0 0 1 -68.5 16c-24.6 0-47.6-6-68.5-16h-8.3a115.23 115.23 0 0 0 -115.2 115.2v28.8a48 48 0 0 0 48 48h288a48 48 0 0 0 48-48v-28.8a115.23 115.23 0 0 0 -115.2-115.2zm-223.7-13.4a63.81 63.81 0 0 0 -45.1-18.6h-64a64.06 64.06 0 0 0 -64 64v32a32 32 0 0 0 32 32h65.9a146.64 146.64 0 0 1 75.2-109.4z" fill="#fff"/></svg>