<svg height="32" viewBox="0 0 32 32" width="32" xmlns="http://www.w3.org/2000/svg"><path d="m0 0h32v32h-32z" fill="#2d368f"/><path d="m9 15a2 2 0 1 0 -2-2 2 2 0 0 0 2 2zm14 0a2 2 0 1 0 -2-2 2 2 0 0 0 2 2zm1 1h-2a2 2 0 0 0 -1.41.58 4.59 4.59 0 0 1 2.35 3.42h2.06a1 1 0 0 0 1-1v-1a2 2 0 0 0 -2-2zm-8 0a3.5 3.5 0 1 0 -3.5-3.5 3.5 3.5 0 0 0 3.5 3.5zm2.4 1h-.25a4.81 4.81 0 0 1 -4.28 0h-.25a3.6 3.6 0 0 0 -3.62 3.58v.92a1.5 1.5 0 0 0 1.5 1.5h9a1.5 1.5 0 0 0 1.5-1.5v-.9a3.6 3.6 0 0 0 -3.6-3.6zm-7-.42a2 2 0 0 0 -1.4-.58h-2a2 2 0 0 0 -2 2v1a1 1 0 0 0 1 1h2.06a4.59 4.59 0 0 1 2.35-3.42z" fill="#fff"/></svg>