<svg height="1024" viewBox="0 0 1024 1024" width="1024" xmlns="http://www.w3.org/2000/svg" xmlns:xlink="http://www.w3.org/1999/xlink"><linearGradient id="a" gradientUnits="userSpaceOnUse" x1="512" x2="512" y2="1024"><stop offset="0" stop-color="#814097"/><stop offset="1" stop-color="#2d368f"/></linearGradient><path d="m0 0h1024v1024h-1024z" fill="url(#a)"/><path d="m731.11 419.78-139.11 88.53v-68.31a24 24 0 0 0 -36.89-20.25l-139.11 88.56v-196.31a24 24 0 0 0 -24-24h-112a24 24 0 0 0 -24 24v400a24 24 0 0 0 24 24h464a24 24 0 0 0 24-24v-272a24 24 0 0 0 -36.89-20.22z" fill="#fff"/></svg>