<svg height="32" viewBox="0 0 32 32" width="32" xmlns="http://www.w3.org/2000/svg"><g fill="#fff"><path d="m16 2.9c4.3 0 4.8 0 6.5.1a7.61 7.61 0 0 1 3 .6 4.39 4.39 0 0 1 1.8 1.2 5.17 5.17 0 0 1 1.2 1.8 7.48 7.48 0 0 1 .5 2.9c.1 1.7.1 2.2.1 6.5s0 4.8-.1 6.5a7.61 7.61 0 0 1 -.6 3 4.39 4.39 0 0 1 -1.2 1.8 5.17 5.17 0 0 1 -1.8 1.2 10.08 10.08 0 0 1 -3 .6c-1.7.1-2.2.1-6.5.1s-4.8 0-6.5-.1a7.61 7.61 0 0 1 -3-.6 4.39 4.39 0 0 1 -1.8-1.2 5.17 5.17 0 0 1 -1.2-1.8 13.38 13.38 0 0 1 -.4-3c-.1-1.7-.1-2.2-.1-6.5s0-4.8.1-6.5a7.48 7.48 0 0 1 .5-2.9 4.39 4.39 0 0 1 1.2-1.8 5.17 5.17 0 0 1 1.8-1.2 6.45 6.45 0 0 1 3-.6c1.7-.1 2.2-.1 6.5-.1m0-2.9c-4.3 0-4.9 0-6.6.1a12.39 12.39 0 0 0 -3.9.7 8.39 8.39 0 0 0 -2.8 1.8 9.63 9.63 0 0 0 -1.9 2.9 10.08 10.08 0 0 0 -.7 3.9c-.1 1.7-.1 2.3-.1 6.6s0 4.9.1 6.6a12.39 12.39 0 0 0 .7 3.9 8.39 8.39 0 0 0 1.8 2.8 7.86 7.86 0 0 0 2.8 1.8 10.08 10.08 0 0 0 3.9.7 50.37 50.37 0 0 0 6.7.2c4.3 0 4.9 0 6.6-.1a12.39 12.39 0 0 0 3.9-.7 8.39 8.39 0 0 0 2.8-1.8 7.86 7.86 0 0 0 1.8-2.8 10.08 10.08 0 0 0 .7-3.9 50.37 50.37 0 0 0 .2-6.7c0-4.3 0-4.9-.1-6.6a12.39 12.39 0 0 0 -.7-3.9 8.39 8.39 0 0 0 -1.8-2.8 7.86 7.86 0 0 0 -2.8-1.8 10.08 10.08 0 0 0 -3.9-.7 50.37 50.37 0 0 0 -6.7-.2z"/><path d="m16 7.8a8.2 8.2 0 1 0 8.2 8.2 8.24 8.24 0 0 0 -8.2-8.2zm0 13.5a5.3 5.3 0 1 1 5.3-5.3 5.34 5.34 0 0 1 -5.3 5.3z"/><circle cx="24.5" cy="7.5" r="1.9"/></g></svg>