<svg height="32" viewBox="0 0 32.1 32" width="32.1" xmlns="http://www.w3.org/2000/svg"><path d="m29.6 0h-27.2a2.35 2.35 0 0 0 -2.4 2.3v27.4a2.35 2.35 0 0 0 2.4 2.3h27.3a2.35 2.35 0 0 0 2.4-2.3v-27.4a2.51 2.51 0 0 0 -2.5-2.3zm-19.9 26.8h-4.8v-14.5h4.8zm-2.4-16.4a2.47 2.47 0 0 1 -2.7-2.5 2.53 2.53 0 0 1 2.7-2.5 2.51 2.51 0 1 1 0 5zm19.8 16.4h-4.8v-7.7c0-1.9-.7-3.3-2.4-3.3a2.75 2.75 0 0 0 -2.5 1.8 3.73 3.73 0 0 0 -.2 1.2v8.1h-4.8s.1-13.1 0-14.4h4.8v2a4.76 4.76 0 0 1 4.4-2.4c3.2 0 5.6 2.1 5.6 6.5v8.2z" fill="#fff"/></svg>