<svg enable-background="new 0 0 32 32" height="32" viewBox="0 0 32 32" width="32" xmlns="http://www.w3.org/2000/svg"><path d="m29.6 0h-27.2c-1.3 0-2.4 1-2.4 2.3v27.4c0 1.3 1.1 2.3 2.4 2.3h27.3c1.3 0 2.4-1 2.4-2.3v-27.4c-.1-1.3-1.2-2.3-2.5-2.3zm-19.9 26.8h-4.8v-14.5h4.8zm-2.4-16.4c-1.7 0-2.7-1.1-2.7-2.5s1.1-2.5 2.7-2.5c1.7 0 2.7 1.1 2.7 2.5s-1 2.5-2.7 2.5zm19.8 16.4h-4.8v-7.7c0-1.9-.7-3.3-2.4-3.3-1.3 0-2.1.9-2.5 1.8-.1.3-.2.7-.2 1.2v8.1h-4.8s.1-13.1 0-14.4h4.8v2c.6-1 1.8-2.4 4.4-2.4 3.2 0 5.6 2.1 5.6 6.5v8.2z" fill="#fff"/></svg>