<svg height="1024" viewBox="0 0 1024 1024" width="1024" xmlns="http://www.w3.org/2000/svg" xmlns:xlink="http://www.w3.org/1999/xlink"><linearGradient id="a" gradientUnits="userSpaceOnUse" x1="512" x2="512" y2="1024"><stop offset="0" stop-color="#814097"/><stop offset="1" stop-color="#2d368f"/></linearGradient><path d="m0 0h1024v1024h-1024z" fill="url(#a)"/><path d="m576 608h-128a32 32 0 0 0 -32 32v128a32 32 0 0 0 32 32h128a32 32 0 0 0 32-32v-128a32 32 0 0 0 -32-32zm-192-288a32 32 0 0 0 -32-32h-128a32 32 0 0 0 -32 32v128a32 32 0 0 0 32 32h95.72l73.16 128a63.79 63.79 0 0 1 55.12-32h.28l-64.28-112.49v-47.51h224v-64h-224zm416-32h-128a32 32 0 0 0 -32 32v128a32 32 0 0 0 32 32h128a32 32 0 0 0 32-32v-128a32 32 0 0 0 -32-32z" fill="#fff"/></svg>