<svg height="64" viewBox="0 0 260.76 64" width="260.76" xmlns="http://www.w3.org/2000/svg"><g fill="#fff"><path d="m0 64v-64h16.67v6.7h-7.14v50.6h7.14v6.7z"/><path d="m41.08 57.15a27 27 0 0 1 -9.49-1.75 24.79 24.79 0 0 1 -8.45-5.24l6.25-7.52a23.65 23.65 0 0 0 5.77 3.65 15.19 15.19 0 0 0 6.22 1.41 8.44 8.44 0 0 0 5.09-1.26 4.07 4.07 0 0 0 1.68-3.44 3.63 3.63 0 0 0 -.49-1.93 4.54 4.54 0 0 0 -1.41-1.45 13.38 13.38 0 0 0 -2.25-1.18l-2.87-1.23-6.32-2.68a19 19 0 0 1 -3.61-1.93 16 16 0 0 1 -3.13-2.8 12.25 12.25 0 0 1 -2.19-3.72 13.07 13.07 0 0 1 -.82-4.8 12.82 12.82 0 0 1 1.26-5.61 14 14 0 0 1 3.58-4.62 17.13 17.13 0 0 1 5.49-3.05 20.81 20.81 0 0 1 7-1.11 22.68 22.68 0 0 1 8.38 1.63 21.09 21.09 0 0 1 7.23 4.73l-5.58 6.92a21.77 21.77 0 0 0 -4.76-2.87 13.34 13.34 0 0 0 -5.29-1 7.84 7.84 0 0 0 -4.5 1.15 3.69 3.69 0 0 0 -1.67 3.24 3.2 3.2 0 0 0 .55 1.9 5.6 5.6 0 0 0 1.54 1.41 16.08 16.08 0 0 0 2.34 1.19l2.9 1.23 6.25 2.58a17.16 17.16 0 0 1 7 4.91 12.65 12.65 0 0 1 2.57 8.26 13.71 13.71 0 0 1 -4.81 10.53 17.65 17.65 0 0 1 -5.76 3.3 23.15 23.15 0 0 1 -7.7 1.15z"/><path d="m86.77 56.71q-9.45 0-14.44-5.58t-5-17.79v-26.05h11v27.17q0 7.14 2.16 10a7.39 7.39 0 0 0 6.25 2.83 7.62 7.62 0 0 0 6.33-2.83q2.24-2.84 2.23-10v-27.17h10.6v26.05q0 12.21-4.88 17.79t-14.25 5.58z"/><path d="m117.13 56.26v-48.52h30.37v9.26h-19.43v9.75h16.52v9.15h-16.52v11.1h20.17v9.23z"/><path d="m157.91 56.26v-48.52h13.7a33.17 33.17 0 0 1 10 1.41 20.22 20.22 0 0 1 7.67 4.36 19.15 19.15 0 0 1 4.95 7.49 30.68 30.68 0 0 1 1.71 10.79 31.11 31.11 0 0 1 -1.71 10.86 20 20 0 0 1 -4.84 7.63 19.71 19.71 0 0 1 -7.48 4.5 29.63 29.63 0 0 1 -9.71 1.49zm10.94-8.86h2.09a18.66 18.66 0 0 0 5.65-.81 10.51 10.51 0 0 0 4.32-2.65 12.36 12.36 0 0 0 2.79-4.8 23.21 23.21 0 0 0 1-7.36 22.87 22.87 0 0 0 -1-7.26 11.81 11.81 0 0 0 -2.79-4.69 10.26 10.26 0 0 0 -4.32-2.49 19.63 19.63 0 0 0 -5.65-.74h-2.09z"/><path d="m205.17 56.26v-48.52h30.36v9.26h-19.42v9.75h16.52v9.15h-16.52v11.1h20.17v9.23z"/><path d="m244.09 64v-6.7h7.14v-50.6h-7.14v-6.7h16.67v64z"/></g></svg>