<svg xmlns="http://www.w3.org/2000/svg" width="96" height="40.81" viewBox="0 0 96 40.81"><path d="M.14,7.52c.27,1.77,1.4,2.62,3.27,2.62s3.18-.87,3.18-2.66S5.38,5.13,3.84,4.63s-2.5-.86-2.5-2.1S2.23.72,3.41.72a2.07,2.07,0,0,1,2.27,2l.85-.14C6.33.72,5.11,0,3.39,0,1.94,0,.48.68.48,2.6S1.86,4.88,3.33,5.35C5,5.92,5.71,6.42,5.71,7.58s-.9,1.85-2.28,1.85A2.25,2.25,0,0,1,1,7.35Z"/><path d="M15,.17V6.48A2.59,2.59,0,0,1,12.16,9.4c-1.53,0-2.76-.82-2.76-2.95V.17H8.51V6.63c0,2.54,1.74,3.51,3.65,3.51s3.65-1,3.65-3.51V.17Z"/><path d="M19.28.92H21c1.68,0,2.45.76,2.45,2.18S22.77,5.38,21,5.38H19.28Zm0,9.06V6.12H21.1c2.19,0,3.27-1.09,3.27-3.05S23.37.17,21,.17H18.4V10Z"/><path d="M27.21.92h1.71c1.69,0,2.45.76,2.45,2.18s-.68,2.28-2.43,2.28H27.21Zm0,9.06V6.12H29c2.19,0,3.27-1.09,3.27-3.05S31.29.17,29,.17H26.32V10Z"/><path d="M37.86,10.14c2.6,0,4.27-1.81,4.27-5.06S40.46,0,37.86,0s-4.27,1.81-4.27,5.06S35.26,10.14,37.86,10.14Zm0-9.36c2.18,0,3.37,1.64,3.37,4.3S40,9.37,37.86,9.37s-3.35-1.62-3.35-4.29S35.68.78,37.86.78Z"/><path d="M51.17,10a2.46,2.46,0,0,1-.55-1.08L50.15,7a1.88,1.88,0,0,0-1.8-1.65v0a2.32,2.32,0,0,0,2.28-2.45c0-1.74-1-2.7-3.22-2.7h-3V10h.88V5.67h1.86c1.26,0,1.93.4,2.21,1.58L49.73,9a2,2,0,0,0,.47,1ZM45.26.92H47.4c1.58,0,2.32.7,2.32,2s-.77,2-2.32,2H45.26Z"/><path d="M55.72,10v-9h3.2V.17H51.63V.93h3.2V10Z"/><path d="M66.19,9.22h-4.7V5.45h4.18V4.68H61.49V.93h4.7V.17H60.6V10h5.59Z"/><path d="M69.39,9.23V.92h1.82C73.54.92,75,2.13,75,5s-1.52,4.23-3.91,4.23Zm1.82.75c2.55,0,4.73-1.38,4.73-5,0-3.45-2-4.8-4.71-4.8H68.51V10Z"/><path d="M85.6,4.88a2.06,2.06,0,0,0,1.8-2.23c0-1.65-1-2.48-3.05-2.48h-2.7V10h2.73c2.4,0,3.45-1,3.45-2.73A2.24,2.24,0,0,0,85.6,4.93Zm-3.07-.26V.92h1.72c1.46,0,2.26.51,2.26,1.85s-.86,1.85-2.13,1.85Zm0,.73h2c1.68,0,2.46.72,2.46,1.87,0,1.41-.91,2-2.5,2H82.53Z"/><path d="M89.51.17h-1l3.3,5.88V10h.87V6.05L95.85.17h-.92L93,3.77a12.32,12.32,0,0,0-.73,1.55h0a14.71,14.71,0,0,0-.77-1.55Z"/><path d="M16.61,32.32l-.45,1,.94-.46.36,1,.34-1,1,.45-.46-.94,1-.36-1-.34.46-1-.94.46-.36-1-.34,1-1-.45.46.94-1,.36Z"/><path d="M6.79,31.64l.46-1-1,.46-.35-1-.35,1-.95-.45.46.94-1,.36,1,.34-.45,1,.94-.46.36,1,.34-1,1,.45-.46-.94,1-.36Z"/><path d="M12.54,35.9l.46-1-.95.46-.35-1-.35,1-.95-.45.46.94-1,.36,1,.34-.45,1,.94-.46.36,1,.34-1,1,.45-.46-.94,1-.36Z"/><path d="M10.85,28.8l-.45,1,.94-.46.36,1,.34-1,1,.46-.46-1,1-.35-1-.35.46-.95-.95.46-.35-1-.34,1-1-.45.46.94-1,.36Z"/><path d="M11.46,33.72V31.26a.78.78,0,0,0-.87-.75H8.74v2.94h2c.55,0,.69.27.69.27M9.18,31.13H11v.28H9.18Zm0,.76H11v.28H9.18Zm0,.76H11v.28H9.18Z"/><path d="M11.94,31.26v2.46s.13-.27.68-.27h2V30.51H12.8a.77.77,0,0,0-.86.75m2.27,1.67H12.38v-.28h1.83Zm0-.76H12.38v-.28h1.83Zm0-.76H12.38v-.28h1.83Z"/><path d="M11.63,15.91A51.64,51.64,0,0,0,0,17.46v7.75c0,7,5,14.25,11.63,15.51,6.62-1.26,11.63-8.52,11.63-15.51V17.46a42.11,42.11,0,0,0-11.63-1.55m.37,3a1,1,0,0,1,.14-.32,2.16,2.16,0,0,1,1.76-.73c.06,0,.1,0,.1-.07a.62.62,0,0,1,.57-.53,1.12,1.12,0,0,0,.32-.09s.08,0,.07,0a.3.3,0,0,1-.1.18c-.29.26-.25.38-.21.41s0,0,.07,0c.89-.79,1.41-.27,1.57-.1s0,.08,0,.09c-.61.14-.85.68-2.09.59-.15,0-1.17-.06-1.5.4-.18.27,0,.52.5.64A9.73,9.73,0,0,0,15,19.34a11.48,11.48,0,0,1,3.43,0c.44.12,1.07.47.94,1.13a.87.87,0,0,1-.48.58s-1.13.79.9.8c.62,0,0,.52,0,.67s.08.21.18.27.08.08,0,.13a.46.46,0,0,1-.35.1c-.1,0-.09.06-.09.1a.29.29,0,0,0,.27.19q.14,0,0,.15c-.13.13-.29.13-.58.12s-.48.31-.32.45.32.29.14.83c-.06.17-.16-.15-.25-.1a.39.39,0,0,1-.51-.15c0-.05-.08-.05-.11,0a.52.52,0,0,1-.79.17c-.1-.05-.31.13-.33.07a.65.65,0,0,1,.28-.69s.07-.1,0-.1S17,24,17,23.82c0,0-.21,0-.2-.09.05-.26.64-.46,1.05-.19s.77-.55.46-.91-1.54.47-2-.48c-.18-.38,0-.71-.14-.73a2.26,2.26,0,0,0-1.92.53,3.21,3.21,0,0,1-3.63.29c-.06,0-.12,0-.09.09a.44.44,0,0,1,0,.42,2,2,0,0,1-.82.52.67.67,0,0,0-.51.92c0,.06,0,.1-.08.09a1,1,0,0,1-.76-.55s-.06-.05-.11,0a.39.39,0,0,0-.1.54s0,.08,0,.09c-.22,0-.38-.23-.57-.21a.79.79,0,0,0-.36.16s0,.09,0,.16c.25.72-.15.74-.18.73s0-.13-.13-.15a.45.45,0,0,1-.52-.43c0-.06,0-.08-.07-.05s-.52.31-.75,0c0-.05-.14,0-.2,0s0-.06,0-.09a.77.77,0,0,1,.46-.66c.06,0,.06-.06,0-.1s-.34-.29-.27-.5c0,0-.19-.12-.14-.16.45-.32,1,.22,1.11.28s.48.07,1.53-.51a4.36,4.36,0,0,0,1.2-.92.18.18,0,0,1,.14-.08,1.78,1.78,0,0,0,1.16-.36.09.09,0,0,1,.13,0c.6.42.91-.5,1-.92,0-.09,0-.16.13-.16,2.2.1,6.37.09,6.37.09s.55,0,.52-.3c0-.55-2.32-.54-4-.3a5,5,0,0,1-2-.07,1,1,0,0,1-.5-.4.76.76,0,0,1-.05-.5m4.27-.52a.65.65,0,0,0-.24.1c-.19.12-.92.43-1.15.06a1.55,1.55,0,0,0,.85-.31.65.65,0,0,1,.57.07,0,0,0,0,1,0,.08M15.2,23.8c.05.07,0,.11,0,.13a.52.52,0,0,1-.37-.07c-.08,0-.1,0-.12.05a.27.27,0,0,0,.16.29c.06.06.05.11-.05.14s-.32,0-.57-.15-.25-.09-.35,0,0,.13,0,.16.16.28-.08.58c-.08.1-.17-.17-.24-.14a.58.58,0,0,1-.7-.18s-.06,0-.12,0-.52.29-.65,0c0-.05-.21.07-.21,0a.63.63,0,0,1,.65-.63c.06,0,.07,0,0-.09a.47.47,0,0,1-.12-.4c0-.12-.26-.14-.14-.2.6-.3.94.27,1,.33a1,1,0,0,0,1-.58c0-.08-.18-.12-.38-.17,0,0-.06-.05,0-.1a3,3,0,0,1,1.71-.9.13.13,0,0,1,.14.12,1.27,1.27,0,0,0,.11.38,1.41,1.41,0,0,0,.43.55.11.11,0,0,1,0,.17,1.22,1.22,0,0,1-.89.27.39.39,0,0,0-.32.11.21.21,0,0,0,0,.09.37.37,0,0,0,.06.27M8.88,21.45c-.12-.11-.36-.06-.44-.24,0,0,0-.05,0-.05a.69.69,0,0,0,.43-.22s0,0,.06,0a.71.71,0,0,0,.38.21s.05,0,0,.07-.3.11-.42.21H8.88M7.49,17.61c.16,0-.2-.32,0-.31a2.78,2.78,0,0,1,1,.2c.08,0,.12-.11.27-.2a.06.06,0,0,1,.07,0c.16.09.21.23.28.19a3,3,0,0,1,1.05-.19c.25,0-.13.27,0,.31a1.9,1.9,0,0,1,1.53,1.82,2.1,2.1,0,0,1-.15.72c-.05.12-.18-.22-.22,0a3.63,3.63,0,0,1-.37,1c-.18.33-.48-.37-.57-.17a1.07,1.07,0,0,1-.84.52s-.06,0,0,0a.25.25,0,0,0,.1-.2s0,0,0-.05a.75.75,0,0,0,.41-.52,4.09,4.09,0,0,1,.26-.72c.24-.42,0-.93,0-1.05a.57.57,0,0,0,.27-.5.58.58,0,0,0-.59-.59.58.58,0,0,0-.45.2h0l-.15.18c0,.07,0,.2.05.23.41.1.68,1,.51,1.31a3,3,0,0,0-.3.78.33.33,0,0,1-.33.33.32.32,0,0,1-.31-.22h0c.11-.07.36-.22.36-.38l-.05-.5a.33.33,0,0,0,.33-.32l.05-.05c.07-.06.11-.22,0-.2s-.45,0-.67.09a.11.11,0,0,0-.06.07s.12.65.15.78,0,0,0,0l-.3,0-.3,0s0,0,0,0,.16-.74.16-.74a.08.08,0,0,0,0-.07A3.74,3.74,0,0,0,8,19.16a.1.1,0,0,0-.09,0c-.06.08,0,.17.11.21a.33.33,0,0,0,.32.32h0s-.06.5-.06.5c0,.16.25.3.37.37s0,0,0,0a.33.33,0,0,1-.3.2.34.34,0,0,1-.34-.33,3.46,3.46,0,0,0-.3-.78c-.18-.31.09-1.21.51-1.31a.15.15,0,0,0,.07-.23C8.16,18,8,17.8,7.69,17.8a.59.59,0,0,0-.6.59c0,.38.29.44.27.55a1.27,1.27,0,0,0,0,1,3.89,3.89,0,0,1,.26.7.73.73,0,0,0,.36.51c.09.06.05.13.09.21a.18.18,0,0,0,.07.08s0,0,0,0A1.09,1.09,0,0,1,7.27,21c-.09-.2-.4.5-.58.17a4,4,0,0,1-.36-1c0-.2-.17.14-.22,0a1.84,1.84,0,0,1,1.38-2.54m2.49.61a0,0,0,0,1,0,0,.28.28,0,0,1,.16-.05.26.26,0,0,1,.26.27.25.25,0,0,1-.09.2,0,0,0,0,1-.05,0,1.45,1.45,0,0,0-.28-.36m-2.4.37a0,0,0,0,1-.06,0,.26.26,0,0,1-.1-.2.27.27,0,0,1,.27-.27.29.29,0,0,1,.18.07,0,0,0,0,1,0,.06,1.58,1.58,0,0,0-.29.34M3.16,20.27a.79.79,0,0,1,1,0s.1,0,.1-.05,0-.2.2-.4c0,0-.14-.21,0-.2.84.21.46,1.09.63,1.24A4.84,4.84,0,0,0,7,21.51a2.53,2.53,0,0,1,.33.12,1.46,1.46,0,0,0,1.28.15c.1,0,.1.09.06.12-1.17,1.12-2.06.83-2.38.63a.71.71,0,0,0-.88.14s-.09.06-.12,0a.71.71,0,0,1,.07-.51c0-.08-.06-.11-.1-.11a.61.61,0,0,0-.39.15c-.08.06-.1-.11,0-.44s-.43-.41-.55-.28a.73.73,0,0,1-1-.06c-.09-.09.19-.06.21-.14s.13-.19.18-.24a.08.08,0,0,0,0-.11.45.45,0,0,1-.27-.51s-.22-.05-.15-.12m16,13.94H13.88v4.11a10.33,10.33,0,0,1-2.25.71,10.33,10.33,0,0,1-2.25-.71V34.22H4.15a15.79,15.79,0,0,1-2.26-4.49H9.38V25.66h4.5v4.06h7.48a15.51,15.51,0,0,1-2.25,4.49"/><path d="M50.88,17.44V30.15c0,6.73-4.06,10.5-10.72,10.5S29.43,37,29.43,30.08V17.44h6.4V30.08c0,3.58,1.73,5.07,4.33,5.07s4.32-1.56,4.32-5V17.44Z"/><path d="M67.88,23.71a8.5,8.5,0,0,0-5.33-1.56c-1.56,0-3.08.49-3.08,1.69,0,1.56,1.52,1.79,3.77,2,4.51.48,9.23,2.3,9.23,7.54s-4.88,7.38-10,7.41c-4.1,0-7-.68-10.17-4l3.54-4.06a9.15,9.15,0,0,0,6.66,2.57c2.11,0,3.58-.75,3.58-2s-1.3-1.85-3.81-2.08c-5-.46-9.26-1.72-9.26-7.38C53,19,57.74,17,62.55,17a12.91,12.91,0,0,1,8.52,2.7Z"/><path d="M96,17.44V30.15c0,6.73-4.06,10.5-10.73,10.5S74.55,37,74.55,30.08V17.44H81V30.08c0,3.58,1.72,5.07,4.32,5.07s4.33-1.56,4.33-5V17.44Z"/></svg>